# xmcd
#
# Track frame offsets:
# 187
# 20937
# 37035
# 63630
# 89717
#
# Disc length: 1820 seconds
#
#
# Revision: 1
# Processed by: cddbd v1.5.2PL0 Copyright (c) Steve Scherf et al.
# Submitted via: FreeRIP 2.945 
#
DISCID=49071a05
DTITLE=Gary Moore - Story Of The Blues
DYEAR=1900
DGENRE=Blues
TTITLE0=Story Of The Blues
TTITLE1=Movin' Down The Road
TTITLE2=King Of The Blues (Live)
TTITLE3=Story Of The Blues (Long Version)
TTITLE4=Stormy Monday (Live)
EXTD=
EXTT0=
EXTT1=
EXTT2=
EXTT3=
EXTT4=
PLAYORDER=
